<svg height="135" width="135" xmlns="http://www.w3.org/2000/svg">

<path fill="#F7654A" d="M74.3 90.6c-10.6 0-20.6-4.1-28.1-11.6S34.6 61.5 34.6 50.9c0-10.6 4.1-20.6 11.6-28.1s17.5-11.6 28.1-11.6c10.6 0 20.6 4.1 28.1 11.6 15.5 15.5 15.5 40.7 0 56.2-7.5 7.5-17.4 11.6-28.1 11.6zm0-67.8c-7.5 0-14.6 2.9-19.9 8.2-11 11-11 28.8 0 39.8 5.3 5.3 12.4 8.2 19.9 8.2 7.5 0 14.6-2.9 19.9-8.2 5.3-5.3 8.2-12.4 8.2-19.9 0-7.5-2.9-14.6-8.2-19.9-5.3-5.3-12.3-8.2-19.9-8.2zM56.6 56.2V45.5H69V33.2h10.7v12.4h12.4v10.7H79.7v12.4H69V56.2H56.6zM6.9 107.4l29.8-29.8c1.5 2.1 3.2 4.1 5 5.9 1.8 1.8 3.8 3.5 5.9 5l-29.8 29.8-10.9-10.9z"/>
<path id="_x3C_Slice_x3E__100_" fill="none" d="M0 0h135v135H0z"/></svg>